<?xml version="1.0" standalone="no"?>
<!DOCTYPE svg PUBLIC "-//W3C//DTD SVG 20010904//EN"
 "http://www.w3.org/TR/2001/REC-SVG-20010904/DTD/svg10.dtd">
<svg version="1.0" xmlns="http://www.w3.org/2000/svg"
 width="160.000000pt" height="160.000000pt" viewBox="0 0 160.000000 160.000000"
 preserveAspectRatio="xMidYMid meet">

<g transform="translate(0.000000,160.000000) scale(0.100000,-0.100000)"
fill="#000000" stroke="none">
<path d="M713 1548 c11 -7 2 -12 -15 -9 -5 0 -7 -2 -6 -6 1 -5 -5 -33 -14 -63
-9 -30 -15 -66 -15 -80 1 -15 -3 -24 -10 -23 -27 6 -212 -81 -200 -93 2 -3 21
5 41 17 20 11 36 19 36 16 0 -11 -72 -47 -82 -41 -9 6 -58 -33 -58 -46 0 -16
38 -4 68 21 39 34 98 65 167 89 47 16 51 19 63 66 7 27 17 66 23 87 l10 37 83
0 84 0 6 -35 c4 -19 12 -35 19 -35 8 0 8 -3 -2 -9 -9 -6 -10 -11 -2 -15 6 -4
9 -11 6 -16 -2 -4 0 -21 6 -37 8 -23 20 -33 52 -43 23 -7 64 -23 90 -36 26
-14 52 -22 58 -19 5 4 8 1 7 -7 -2 -7 7 -14 20 -16 12 -2 20 -7 18 -11 -3 -4
7 -20 22 -34 l27 -26 84 24 c57 17 88 22 96 15 7 -5 15 -6 19 -2 4 4 7 3 6 -3
-6 -26 2 -48 25 -71 14 -13 24 -28 24 -32 -3 -20 2 -32 12 -26 8 4 7 9 -2 15
-8 5 -9 9 -3 9 18 0 24 -12 13 -26 -6 -7 -16 -11 -23 -8 -6 2 -23 -7 -36 -21
-13 -14 -20 -25 -16 -25 4 0 2 -9 -4 -21 -7 -11 -18 -18 -25 -15 -7 2 -20 -3
-29 -13 -14 -15 -15 -26 -7 -62 13 -57 14 -162 1 -228 l-10 -53 57 -58 c31
-33 60 -57 64 -54 4 2 9 -1 11 -8 2 -6 -18 -44 -44 -85 -27 -40 -46 -79 -43
-86 4 -6 0 -4 -8 5 -18 23 -63 39 -84 31 -10 -4 -14 -2 -10 4 3 5 1 10 -6 11
-7 1 -25 4 -40 8 -21 5 -34 1 -52 -16 -14 -13 -22 -28 -18 -33 4 -6 0 -8 -10
-4 -10 3 -17 3 -17 -2 0 -5 -13 -14 -29 -21 -17 -6 -28 -17 -25 -24 3 -8 -4
-12 -18 -12 -15 1 -22 -4 -20 -13 2 -9 -3 -11 -14 -7 -9 4 -26 4 -37 0 -16 -5
-17 -8 -6 -16 10 -7 5 -8 -16 -4 -24 5 -27 4 -15 -5 12 -9 11 -10 -8 -6 -12 3
-20 1 -17 -3 3 -5 0 -10 -6 -12 -6 -2 -11 -24 -11 -48 0 -29 -3 -38 -7 -26 -5
14 -11 4 -20 -38 l-12 -56 -92 0 c-51 0 -87 4 -80 8 17 11 -25 185 -44 178 -7
-3 -13 -2 -13 2 0 8 -96 47 -117 47 -6 0 -15 4 -20 9 -5 5 -2 6 7 2 8 -4 6 0
-5 8 -11 9 -25 14 -32 12 -7 -3 -12 0 -10 7 1 6 -8 13 -21 15 -12 2 -20 7 -17
11 2 5 -5 17 -17 27 -20 18 -21 18 -15 1 4 -11 3 -16 -3 -12 -6 3 -10 13 -10
21 0 16 -28 18 -50 4 -11 -8 -7 -9 15 -5 28 5 28 5 6 -5 -14 -6 -28 -7 -33 -2
-11 11 -90 -8 -101 -25 -4 -7 -13 -13 -20 -13 -7 0 -6 4 3 10 13 8 12 10 -3
10 -10 0 -16 4 -13 9 8 13 -39 93 -49 84 -4 -5 -5 0 -1 11 5 14 3 17 -10 12
-15 -6 -15 -4 -4 11 8 10 40 44 73 75 49 47 59 61 53 80 -15 52 -18 189 -7
249 l13 62 -59 59 c-32 32 -63 56 -70 54 -7 -3 -15 0 -19 6 -4 6 -3 8 3 5 6
-4 31 29 58 75 26 44 50 77 53 71 4 -5 35 -17 69 -26 71 -19 84 -21 63 -7 -9
6 -10 10 -3 10 7 0 16 -7 21 -16 8 -14 10 -13 22 3 8 10 10 15 6 11 -5 -4 -14
-4 -20 1 -16 14 -157 51 -167 45 -5 -3 -9 0 -9 6 0 6 -5 8 -11 4 -8 -4 -7 -9
2 -15 13 -8 6 -13 -13 -10 -4 0 -5 -6 -1 -15 3 -9 0 -14 -8 -12 -9 2 -14 -6
-14 -19 0 -11 -4 -25 -8 -29 -4 -5 -5 0 -1 10 5 14 4 17 -4 12 -7 -4 -12 -13
-12 -20 0 -7 -9 -25 -20 -39 -27 -34 -25 -48 11 -77 17 -14 46 -41 65 -60 30
-31 33 -39 26 -70 -9 -45 -9 -195 0 -240 7 -32 4 -39 -34 -80 -23 -25 -41 -52
-39 -59 2 -12 0 -12 -11 -3 -11 8 -17 7 -26 -9 -10 -16 -8 -27 13 -69 16 -31
30 -48 37 -44 6 4 8 3 4 -4 -3 -6 3 -26 14 -45 l21 -35 90 24 90 25 48 -40
c54 -46 183 -111 219 -111 18 0 22 -4 18 -18 -4 -10 1 -40 9 -68 8 -27 15 -61
15 -76 l0 -28 108 0 108 0 23 94 22 93 42 13 c62 18 147 65 190 106 l37 35 89
-25 c106 -31 105 -30 97 -10 -3 8 -2 13 2 10 4 -3 29 32 55 76 l48 81 -31 29
c-18 15 -36 26 -41 22 -5 -3 -8 -2 -7 3 4 12 -44 63 -53 57 -4 -2 -6 6 -3 18
3 13 8 70 11 128 5 115 -6 187 -27 182 -11 -3 -11 0 -1 12 7 9 17 13 22 10 5
-3 36 21 69 54 l60 59 -49 83 c-50 83 -80 122 -68 88 4 -10 2 -18 -2 -18 -5 0
-11 5 -13 10 -3 11 -144 -24 -166 -42 -9 -8 -11 -7 -7 4 12 32 -192 159 -232
144 -9 -4 -11 -2 -7 6 5 7 2 9 -8 6 -9 -4 -14 0 -14 11 1 9 -7 52 -17 96 l-19
80 -103 0 c-57 0 -98 -3 -92 -7z m196 -48 c0 -9 -4 -8 -9 5 -5 11 -9 27 -9 35
0 9 4 8 9 -5 5 -11 9 -27 9 -35z m-299 -160 c-8 -5 -19 -10 -25 -10 -5 0 -3 5
5 10 8 5 20 10 25 10 6 0 3 -5 -5 -10z m485 -48 c-3 -3 -11 0 -18 7 -9 10 -8
11 6 5 10 -3 15 -9 12 -12z m-645 -46 c0 -3 -4 -8 -10 -11 -5 -3 -10 -1 -10 4
0 6 5 11 10 11 6 0 10 -2 10 -4z m-166 -15 c4 -5 -3 -7 -14 -4 -23 6 -26 13
-6 13 8 0 17 -4 20 -9z m1083 3 c-3 -3 -12 -4 -19 -1 -8 3 -5 6 6 6 11 1 17
-2 13 -5z m-40 -10 c-3 -3 -12 -4 -19 -1 -8 3 -5 6 6 6 11 1 17 -2 13 -5z
m-38 -8 c-2 -2 -17 -6 -34 -10 -22 -5 -26 -4 -15 4 14 9 59 15 49 6z m-1159
-106 c0 -5 -5 -10 -11 -10 -5 0 -7 5 -4 10 3 6 8 10 11 10 2 0 4 -4 4 -10z
m109 -143 c8 -15 8 -31 1 -52 l-10 -30 5 34 c4 27 0 40 -17 58 -15 16 -17 22
-7 18 9 -3 21 -16 28 -28z m1128 -69 c-3 -7 -5 -2 -5 12 0 14 2 19 5 13 2 -7
2 -19 0 -25z m10 -125 c-2 -16 -4 -5 -4 22 0 28 2 40 4 28 2 -13 2 -35 0 -50z
m-1150 10 c-3 -10 -5 -2 -5 17 0 19 2 27 5 18 2 -10 2 -26 0 -35z m1140 -105
c-3 -7 -5 -2 -5 12 0 14 2 19 5 13 2 -7 2 -19 0 -25z m-1130 0 c-3 -8 -6 -5
-6 6 -1 11 2 17 5 13 3 -3 4 -12 1 -19z m1 -52 c-10 -7 -16 -16 -13 -19 3 -4
2 -5 -1 -3 -3 3 -17 -7 -31 -22 -15 -16 -13 -10 7 16 17 23 37 42 43 42 7 0 4
-7 -5 -14z m1232 -82 c0 -8 -19 -13 -24 -6 -3 5 1 9 9 9 8 0 15 -2 15 -3z
m-1330 -18 c0 -2 -7 -7 -16 -10 -8 -3 -12 -2 -9 4 6 10 25 14 25 6z m1360 -16
c0 -5 -2 -10 -4 -10 -3 0 -8 5 -11 10 -3 6 -1 10 4 10 6 0 11 -4 11 -10z m-49
-73 c-10 -9 -11 -8 -5 6 3 10 9 15 12 12 3 -3 0 -11 -7 -18z m-253 -57 c-7
-11 -17 -20 -22 -20 -5 0 -1 9 9 20 10 11 20 20 22 20 2 0 -2 -9 -9 -20z m232
16 c0 -3 -4 -8 -10 -11 -5 -3 -10 -1 -10 4 0 6 5 11 10 11 6 0 10 -2 10 -4z
m-285 -66 c-3 -5 -12 -10 -18 -10 -7 0 -6 4 3 10 19 12 23 12 15 0z m-248
-262 c-3 -8 -6 -5 -6 6 -1 11 2 17 5 13 3 -3 4 -12 1 -19z"/>
<path d="M765 1229 c-22 -4 -44 -4 -49 -1 -5 3 -6 0 -3 -5 4 -6 0 -14 -9 -17
-24 -9 -31 -7 -14 4 24 16 -5 12 -50 -6 -31 -12 -40 -21 -35 -33 5 -13 4 -13
-6 -4 -10 10 -15 9 -26 -5 -8 -9 -11 -11 -7 -3 14 27 -75 -52 -111 -97 -27
-35 -32 -48 -24 -59 9 -11 8 -12 -4 -7 -12 4 -14 0 -10 -18 3 -16 2 -19 -5
-10 -7 11 -12 6 -21 -19 -14 -40 -14 -59 0 -39 9 12 10 12 5 -3 -3 -10 -6 -28
-7 -40 -1 -20 -2 -20 -10 3 -6 18 -7 10 -4 -30 3 -41 2 -51 -6 -40 -8 12 -9
10 -5 -10 3 -14 6 -38 7 -55 1 -29 1 -30 9 -5 7 23 8 23 9 3 1 -12 4 -30 7
-40 5 -15 4 -15 -5 -3 -14 19 -14 1 0 -38 6 -19 15 -29 22 -25 6 4 8 0 4 -10
-14 -38 103 -166 192 -208 292 -138 622 66 624 386 1 94 -20 166 -70 243 -47
70 -122 135 -141 120 -10 -9 -10 -13 0 -19 6 -4 16 -5 20 -3 5 3 7 1 6 -4 -2
-5 25 -37 60 -71 58 -57 77 -81 51 -66 -6 4 -1 -11 10 -33 47 -92 45 -239 -4
-333 -18 -36 -21 -49 -12 -58 9 -9 8 -11 -4 -6 -10 4 -27 -9 -50 -37 -18 -24
-33 -46 -32 -50 1 -3 -4 -9 -13 -12 -10 -4 -13 -2 -8 6 5 7 3 8 -5 4 -7 -5
-10 -15 -6 -23 4 -13 3 -14 -10 -3 -12 10 -15 10 -15 -4 0 -9 -5 -16 -11 -16
-5 0 -7 5 -4 11 4 6 -11 1 -34 -11 -90 -45 -236 -43 -331 5 -37 19 -50 21 -59
12 -9 -9 -11 -9 -6 4 4 10 -16 36 -62 79 -37 35 -62 61 -56 56 9 -5 11 -2 7 8
-3 9 -10 14 -14 11 -4 -3 -7 1 -7 8 1 6 -7 39 -17 71 -27 87 -19 201 19 281
16 33 29 68 30 78 1 10 6 21 10 25 5 4 5 -1 2 -10 -4 -10 -5 -18 -4 -18 2 0
23 21 47 47 33 34 38 42 18 30 -15 -9 -31 -17 -35 -17 -14 0 39 33 56 35 9 1
43 15 76 31 55 26 69 29 165 29 87 0 113 -4 153 -22 26 -12 45 -18 42 -13 -3
6 1 7 9 4 9 -3 16 -2 16 4 0 16 -98 53 -153 58 -27 3 -53 6 -56 8 -3 1 -24 -1
-46 -5z m48 -16 c-7 -2 -19 -2 -25 0 -7 3 -2 5 12 5 14 0 19 -2 13 -5z m97 -3
c8 -5 11 -10 5 -10 -5 0 -17 5 -25 10 -8 5 -10 10 -5 10 6 0 17 -5 25 -10z
m-260 -20 c-8 -5 -19 -10 -25 -10 -5 0 -3 5 5 10 8 5 20 10 25 10 6 0 3 -5 -5
-10z m476 -122 l17 -33 -25 25 c-13 14 -23 28 -21 33 7 12 12 8 29 -25z m71
-130 c-3 -8 -6 -5 -6 6 -1 11 2 17 5 13 3 -3 4 -12 1 -19z m20 -95 c-3 -10 -5
-2 -5 17 0 19 2 27 5 18 2 -10 2 -26 0 -35z m0 -120 c-3 -10 -5 -4 -5 12 0 17
2 24 5 18 2 -7 2 -21 0 -30z m-23 -87 c-3 -14 -10 -24 -14 -21 -5 3 -3 16 3
29 15 31 20 27 11 -8z m-710 -101 c9 -14 13 -25 8 -25 -5 0 -14 11 -20 25 -6
14 -10 25 -8 25 2 0 11 -11 20 -25z m641 -5 c-8 -16 -25 -34 -38 -40 l-22 -11
21 18 c12 10 27 28 33 41 7 12 14 22 17 22 2 0 -2 -13 -11 -30z m-575 -59 c8
-8 1 -6 -17 4 -18 10 -29 23 -26 27 2 5 10 3 16 -4 7 -7 19 -19 27 -27z m55
-39 c-3 -3 -11 0 -18 7 -9 10 -8 11 6 5 10 -3 15 -9 12 -12z m54 -31 c-6 -2
-18 4 -27 13 -15 15 -15 15 10 4 15 -7 23 -15 17 -17z m327 17 c4 -6 3 -8 -4
-4 -6 3 -13 2 -17 -4 -3 -5 -14 -10 -23 -10 -15 0 -5 9 35 29 1 1 5 -4 9 -11z
m-76 -28 c-8 -5 -28 -9 -45 -9 -30 2 -30 2 5 9 51 11 57 11 40 0z"/>
<path d="M1385 1010 c3 -5 8 -10 11 -10 2 0 4 5 4 10 0 6 -5 10 -11 10 -5 0
-7 -4 -4 -10z"/>
<path d="M765 979 c15 -6 10 -8 -20 -6 -28 1 -39 -2 -37 -11 1 -7 -5 -12 -14
-10 -9 2 -30 -14 -47 -35 -26 -32 -31 -47 -34 -103 -4 -104 42 -173 134 -200
48 -14 58 -14 106 0 108 32 164 134 132 242 -25 83 -95 133 -186 132 -39 0
-48 -3 -34 -9z m104 -30 c17 -6 31 -15 31 -20 0 -5 5 -9 11 -9 6 0 8 8 5 18
-3 9 8 1 24 -18 17 -19 30 -39 30 -44 0 -5 -7 -1 -16 10 -15 19 -16 19 -9 -1
28 -80 22 -157 -16 -191 -10 -9 -19 -21 -19 -26 0 -11 19 8 43 42 9 13 17 20
17 15 0 -21 -48 -68 -71 -71 -13 -2 -40 -6 -59 -10 -33 -7 -34 -8 -10 -14 17
-5 7 -7 -30 -7 -40 0 -48 2 -30 8 25 7 25 7 2 8 -13 1 -32 6 -44 12 -11 6 -22
8 -25 5 -3 -3 5 -10 18 -15 13 -5 18 -10 11 -10 -19 -1 -70 36 -83 61 -9 16
-8 19 2 13 9 -6 10 -3 5 11 -13 30 -19 100 -12 128 8 31 62 95 90 106 30 12
98 12 135 -1z m-207 -38 c-15 -21 -29 -37 -31 -35 -4 4 47 74 54 74 3 0 -8
-18 -23 -39z m-35 -83 c-3 -7 -5 -2 -5 12 0 14 2 19 5 13 2 -7 2 -19 0 -25z
m350 -10 c-3 -7 -5 -2 -5 12 0 14 2 19 5 13 2 -7 2 -19 0 -25z m-350 -70 c-3
-7 -5 -2 -5 12 0 14 2 19 5 13 2 -7 2 -19 0 -25z m350 10 c-3 -8 -6 -5 -6 6
-1 11 2 17 5 13 3 -3 4 -12 1 -19z m-82 -118 c-3 -5 -14 -10 -23 -9 -14 0 -13
2 3 9 27 11 27 11 20 0z"/>
<path d="M920 910 c0 -5 5 -10 10 -10 6 0 10 5 10 10 0 6 -4 10 -10 10 -5 0
-10 -4 -10 -10z"/>
<path d="M660 694 c0 -10 31 -36 37 -31 3 3 -2 13 -10 22 -16 15 -27 19 -27 9z"/>
</g>
</svg>
