<?xml version="1.0" standalone="no"?>
<!DOCTYPE svg PUBLIC "-//W3C//DTD SVG 20010904//EN"
 "http://www.w3.org/TR/2001/REC-SVG-20010904/DTD/svg10.dtd">
<svg version="1.0" xmlns="http://www.w3.org/2000/svg"
 width="160.000000pt" height="160.000000pt" viewBox="0 0 160.000000 160.000000"
 preserveAspectRatio="xMidYMid meet">

<g transform="translate(0.000000,160.000000) scale(0.100000,-0.100000)"
fill="#000000" stroke="none">
<path d="M655 1478 c-3 -13 -9 -41 -13 -62 -4 -22 -14 -42 -22 -47 -8 -4 -44
-21 -80 -37 -36 -17 -84 -47 -107 -67 l-43 -36 -60 22 c-33 12 -62 20 -65 18
-2 -3 -35 -58 -73 -124 l-69 -119 48 -40 c48 -40 49 -42 42 -81 -10 -52 -10
-159 0 -210 8 -40 7 -41 -42 -81 l-49 -41 70 -119 c38 -65 71 -121 73 -123 2
-2 31 6 63 17 l59 20 44 -36 c24 -19 80 -52 124 -73 l80 -38 10 -58 11 -58
146 -3 146 -3 6 53 c4 29 10 58 14 64 4 6 38 25 77 43 38 18 92 49 120 70 l50
38 50 -18 c28 -10 55 -18 62 -18 6 -1 43 54 82 121 l70 122 -36 31 c-20 16
-43 35 -50 40 -11 8 -12 20 -4 55 13 57 13 142 1 198 -10 41 -9 43 26 75 21
17 43 37 50 42 10 8 -2 36 -56 128 -37 65 -71 121 -73 124 -3 3 -31 -5 -62
-16 l-57 -22 -52 40 c-29 23 -84 55 -122 72 -38 17 -71 33 -73 35 -2 2 -9 29
-15 61 l-12 58 -142 3 c-140 3 -142 2 -147 -20z m208 -95 c3 -10 8 -34 11 -54
6 -33 10 -38 44 -44 62 -11 158 -63 217 -117 l57 -51 49 17 c28 10 51 17 53
15 1 -2 15 -26 29 -53 l27 -48 -40 -37 -40 -36 15 -60 c19 -77 19 -166 0 -235
l-14 -55 39 -38 40 -38 -27 -47 c-14 -26 -28 -49 -29 -51 -2 -1 -26 5 -54 14
l-52 17 -41 -40 c-58 -56 -149 -109 -213 -123 -51 -11 -54 -14 -60 -48 -12
-72 -10 -71 -74 -71 l-59 0 -11 54 c-10 52 -13 54 -48 61 -62 11 -158 63 -216
116 l-56 51 -47 -16 c-47 -16 -48 -16 -65 6 -10 13 -23 36 -29 52 -12 27 -10
31 24 62 l36 33 -15 73 c-17 79 -14 187 7 247 12 33 11 35 -28 72 l-40 37 29
51 c16 28 31 51 32 51 1 0 23 -7 49 -16 l47 -16 52 48 c55 49 168 109 225 120
33 6 37 12 48 77 l6 37 59 0 c47 0 60 -3 63 -17z"/>
<path d="M705 1083 c-255 -92 -274 -427 -32 -555 60 -33 194 -33 254 0 63 33
106 74 137 133 58 105 42 242 -39 337 -73 85 -214 123 -320 85z m209 -120
c122 -86 110 -269 -23 -340 -122 -64 -271 15 -287 153 -11 94 53 192 142 217
45 13 128 -2 168 -30z"/>
</g>
</svg>
